<svg id="Layer_1" data-name="Layer 1" xmlns="http://www.w3.org/2000/svg" viewBox="0 0 418.48 269.5"><defs><style>.cls-1,.cls-2{fill:none;stroke:#000;stroke-miterlimit:10;}.cls-1{stroke-width:11px;}.cls-2{stroke-width:10px;}</style></defs><title>logo4</title><path d="M281.88,414.86h16l36.87,66.86H321.29l-8.2-15.28H266.6l-8.21,15.28H244.82ZM308,457l-18.11-33.85L271.69,457Z" transform="translate(-136 -212.5)"/><path d="M345.16,414.86h51.2c17.73,0,26,6.7,26,19.24,0,8.86-4.81,14.9-14,17.25,8.11.29,13.49,4.91,13.49,12.83v17.54H409.37V466c0-6-3-8.58-9.05-8.58H357.79v24.33H345.16ZM393.72,447c10.18,0,15.65-3.12,15.65-11.23s-5.47-10.65-15.65-10.65H357.79V447Z" transform="translate(-136 -212.5)"/><path d="M457,482l-13.3-.28V412.61H234.35V401.86L457,402" transform="translate(-136 -212.5)"/><path class="cls-1" d="M236,407a94.5,94.5,0,0,1,0-189l-.29,53.34" transform="translate(-136 -212.5)"/><path d="M241.13,306.74h51.3c17.76,0,26.07,6.71,26.07,19.28,0,8.88-4.81,14.92-14,17.28,8.13.29,13.51,4.92,13.51,12.85v17.57H305.47V358c0-6.05-3-8.6-9.07-8.6H253.79v24.37H241.13ZM289.79,339c10.2,0,15.68-3.12,15.68-11.24S300,317,289.79,317h-36V339Z" transform="translate(-136 -212.5)"/><path d="M332.58,306.74h12.66v67H332.58Z" transform="translate(-136 -212.5)"/><path d="M356.48,306.74h77.27v10.77h-32.3v56.21H388.88V317.51h-32.4Z" transform="translate(-136 -212.5)"/><path d="M444.43,306.74h12.66v97H444.43Z" transform="translate(-136 -212.5)"/><path d="M469.18,340.19c0-21.35,18-35.15,43.64-35.15,22.87,0,39.68,11.62,41.66,27.12H541.16c-1.6-7.94-12-16.44-28.34-16.44-18.51,0-30.51,10.2-30.51,24.47s12,24.65,30.51,24.65c16.35,0,26.74-8.59,28.34-16.62h13.32c-1.89,15.68-18.79,27.39-41.66,27.39C487.22,375.61,469.18,361.63,469.18,340.19Z" transform="translate(-136 -212.5)"/><line class="cls-2" x1="288" y1="194.5" x2="273" y2="194.5"/></svg>