<svg xmlns="http://www.w3.org/2000/svg" viewBox="0 0 659 234.8"><defs><style>.cls-1{fill:none;stroke:#000;stroke-miterlimit:10;stroke-width:5px;}</style></defs><title>logo-2</title><g id="Layer_1" data-name="Layer 1"><path d="M100.46,350.62c0-31.24,26.4-51.42,63.86-51.42,33.45,0,58.06,17,61,39.67H205.79c-2.35-11.61-17.55-24.05-41.47-24.05-27.09,0-44.65,14.93-44.65,35.8s17.56,36.08,44.65,36.08c23.92,0,39.12-12.58,41.47-24.33h19.49c-2.76,22.95-27.51,40.09-61,40.09C126.86,402.46,100.46,382,100.46,350.62Z" transform="translate(-58 -299.2)"/><path d="M243,301.69h75c26,0,38.16,9.81,38.16,28.2,0,13-7.05,21.84-20.46,25.3,11.89.41,19.76,7.18,19.76,18.79V399.7H337.11V376.61c0-8.85-4.42-12.58-13.27-12.58H261.5V399.7H243Zm71.18,47.14c14.93,0,22.95-4.56,22.95-16.45s-8-15.62-22.95-15.62H261.5v32.07Z" transform="translate(-58 -299.2)"/><path d="M376.78,301.69h18.53v98H376.78Z" transform="translate(-58 -299.2)"/><path d="M411.76,301.69H524.83v15.76H477.55V487H459.17V317.45H411.76Z" transform="translate(-58 -299.2)"/><path d="M540.45,301.69H559v98H540.45Z" transform="translate(-58 -299.2)"/><path d="M576.67,350.62c0-31.24,26.4-51.42,63.86-51.42,33.45,0,58.05,17,61,39.67H682c-2.35-11.61-17.56-24.05-41.47-24.05-27.1,0-44.65,14.93-44.65,35.8s17.55,36.08,44.65,36.08c23.91,0,39.12-12.58,41.47-24.33h19.49c-2.77,22.95-27.51,40.09-61,40.09C603.07,402.46,576.67,382,576.67,350.62Z" transform="translate(-58 -299.2)"/><path d="M153.78,436h23.5l54.05,98H211.56l-12-22.39H131.39l-12,22.39H99.46Zm38.29,61.78-26.54-49.62-26.68,49.62Z" transform="translate(-58 -299.2)"/><path d="M243.48,436h75c26,0,38.16,9.81,38.16,28.19,0,13-7.05,21.84-20.46,25.3,11.89.41,19.76,7.19,19.76,18.8V534H337.61V510.92c0-8.85-4.42-12.58-13.27-12.58H262V534H243.48Zm71.18,47.13c14.93,0,22.95-4.56,22.95-16.45s-8-15.62-22.95-15.62H262v32.07Z" transform="translate(-58 -299.2)"/><path d="M477.55,451.75V534H459.17V451.75" transform="translate(-58 -299.2)"/></g><g id="Layer_2" data-name="Layer 2"><line class="cls-1" y1="126.8" x2="659" y2="126.8"/></g></svg>
