<svg xmlns="http://www.w3.org/2000/svg" viewBox="0 0 782.4 272.61"><defs><style>.cls-1{fill:none;stroke:#000;stroke-miterlimit:10;stroke-width:8px;}.cls-2{font-size:120px;letter-spacing:0.12em;}.cls-2,.cls-5{font-family:AdeDisplay, Ade;}.cls-3{letter-spacing:0.15em;}.cls-4{letter-spacing:0.1em;}.cls-5{font-size:99.59px;letter-spacing:0.08em;}.cls-6{letter-spacing:0.1em;}</style></defs><title>CriticArtLogo1</title><g id="Layer_1" data-name="Layer 1"><line class="cls-1" x1="161.4" y1="172.58" x2="683.41" y2="171.58"/><text class="cls-2" transform="translate(74.4 158.51) scale(0.85 1)">R<tspan class="cls-3" x="104.76" y="0">I</tspan><tspan x="157.44" y="0">TI</tspan><tspan class="cls-4" x="299.76" y="0">C</tspan></text><path d="M236,297l-.4,6.87s-29.59,21.3-65.88,18.37c-16.55-1.64-34.17-5.39-48.41-14-14.06-8.68-28.4-18.83-38.22-32.83S67.69,242.69,67.6,225.5c.09-17.19,5.68-36,15.49-49.93s24.16-24.13,38.22-32.82c14.24-8.6,31.86-12.35,48.41-14,36.29-2.93,57.76,14.08,57.76,14.08l.14,1.16L229,178l-4-1c-19-50-43.59-47-56-45.59l-1.74.27a100.82,100.82,0,0,0-41.58,16.55c-12.8,9.15-20.6,22-26.09,35.57a118.17,118.17,0,0,0,0,83.39c5.49,13.54,13.29,26.43,26.09,35.58a100.82,100.82,0,0,0,41.58,16.55s.58.1,1.74.27c14.79,2.2,40-.59,53-22.59Z" transform="translate(-67.6 -128.42)"/></g><g id="Layer_2" data-name="Layer 2"><path d="M505.37,371.83a11.9,11.9,0,0,0,5,9.74,15,15,0,0,0,4.19,2.11,15.47,15.47,0,0,0,4.65.72v3.5H472.16v-3.5a23.93,23.93,0,0,0,22.48-15.7l54.36-148a16.38,16.38,0,0,0,1-5.44,15.77,15.77,0,0,0-15.77-15.73V196H576.4l64.39,173.64A22.61,22.61,0,0,0,662,384.4v3.5H594.41v-3.5a18.33,18.33,0,0,0,17.19-24.74L556.2,211s-52.49,155.89-50.73,162.29" transform="translate(-67.6 -128.42)"/><text class="cls-5" transform="translate(611.39 259.46)">R<tspan class="cls-6" x="83.16" y="0">T</tspan></text><line class="cls-1" x1="650.4" y1="171.58" x2="782.4" y2="171.58"/></g></svg>