<svg id="Layer_1" data-name="Layer 1" xmlns="http://www.w3.org/2000/svg" viewBox="0 0 510 182"><defs><style>.cls-1{fill:none;stroke:#000;stroke-miterlimit:10;stroke-width:8px;}</style></defs><title>CriticArtLogo3</title><line class="cls-1" x1="4" x2="4" y2="86"/><line class="cls-1" x1="95" y1="4" x2="7" y2="4"/><path d="M146.05,309.51c0-16.19,13.43-26.71,33.89-26.71,18.89,0,32.17,8.74,33.52,21.81H195.7c-.85-4.4-7-7.81-15.76-7.81-10,0-16.48,5.11-16.48,12.71s6.46,12.86,16.48,12.86c8.8,0,14.91-3.41,15.76-7.89h17.76c-1.35,13.22-14.63,21.95-33.52,21.95C159.48,336.43,146.05,325.85,146.05,309.51Z" transform="translate(-117 -260)"/><path d="M220.49,284h41.56c14,0,20.95,5.33,20.95,15.63,0,7-3.84,11.65-10.73,13.71,6.54.42,10.66,4.19,10.66,10.44V335H266.24v-8.52c0-4.55-1.28-5.9-5.83-5.9H237.19V335h-16.7Zm37.58,23.23c4.47,0,7.53-.85,7.53-5s-3.06-4.9-7.53-4.9H237.19v9.87Z" transform="translate(-117 -260)"/><path d="M291.38,284h16.69v51H291.38Z" transform="translate(-117 -260)"/><path d="M315.1,284h60.66v14.07H353.81V335H337.12V298.08h-22Z" transform="translate(-117 -260)"/><path d="M382.72,284h16.69v51H382.72Z" transform="translate(-117 -260)"/><path d="M406.45,309.51c0-16.19,13.42-26.71,33.88-26.71,18.89,0,32.17,8.74,33.52,21.81H456.1c-.86-4.4-7-7.81-15.77-7.81-10,0-16.48,5.11-16.48,12.71s6.46,12.86,16.48,12.86c8.8,0,14.91-3.41,15.77-7.89h17.75c-1.35,13.22-14.63,21.95-33.52,21.95C419.87,336.43,406.45,325.85,406.45,309.51Z" transform="translate(-117 -260)"/><path d="M499.28,284h21.31l26.07,51H528.83l-4.48-9.45h-28.9L490.9,335H473.14Zm19.32,29.55-8.73-18.25-8.74,18.25Z" transform="translate(-117 -260)"/><path d="M552.34,284H569V321h34V335H552.34Z" transform="translate(-117 -260)"/><path d="M420.05,366.59h20.41l25,48.86H448.36l-4.29-9.05H416.38L412,415.45H395Zm18.51,28.31-8.37-17.49-8.37,17.49Z" transform="translate(-117 -260)"/><path d="M470.88,366.59h39.8c13.4,0,20.07,5.11,20.07,15,0,6.74-3.67,11.16-10.27,13.13,6.26.41,10.2,4,10.2,10v10.75h-16v-8.17c0-4.35-1.22-5.65-5.57-5.65H486.87v13.82h-16Zm36,22.25c4.29,0,7.21-.81,7.21-4.76s-2.92-4.7-7.21-4.7h-20v9.46Z" transform="translate(-117 -260)"/><path d="M536.81,366.59h58.1v13.47h-21v35.39h-16V380.06H536.81Z" transform="translate(-117 -260)"/><line class="cls-1" x1="506" y1="182" x2="506" y2="96"/><line class="cls-1" x1="415" y1="178" x2="503" y2="178"/></svg>
